<svg xmlns="http://www.w3.org/2000/svg" xmlns:xlink="http://www.w3.org/1999/xlink" width="1080" zoomAndPan="magnify" viewBox="0 0 810 809.999993" height="1080" preserveAspectRatio="xMidYMid meet" version="1.0"><rect x="-81" width="972" fill="#ffffff" y="-80.999999" height="971.999992" fill-opacity="1"/><rect x="-81" width="972" fill="#000000" y="-80.999999" height="971.999992" fill-opacity="1"/><path fill="#72e8d2" d="M 670.492188 369.777344 C 614.984375 424.769531 518.324219 451.839844 469.792969 462.519531 C 533.621094 433.144531 604.917969 382.019531 663.878906 293.816406 C 663.878906 293.800781 685.265625 318.050781 670.492188 369.777344 Z M 670.492188 369.777344 " fill-opacity="1" fill-rule="nonzero"/><path fill="#72e8d2" d="M 0 570.199219 C 0 570.199219 61.722656 404.347656 195.433594 385.074219 C 329.160156 365.796875 352.289062 421.0625 502.734375 367.070312 C 502.734375 367.070312 528.445312 448.058594 367.734375 468.625 C 367.734375 468.625 351.019531 500.765625 401.167969 500.765625 C 451.3125 500.765625 628.738281 478.363281 752.183594 293.78125 C 752.183594 293.78125 810.035156 359.347656 669.894531 504.617188 C 529.753906 649.882812 352.308594 724.480469 0 570.199219 Z M 0 570.199219 " fill-opacity="1" fill-rule="nonzero"/><path fill="#e24065" d="M 542.542969 106.492188 C 517.035156 80.984375 475.699219 80.984375 450.1875 106.492188 L 415.8125 140.847656 L 381.453125 106.492188 C 355.941406 80.984375 314.589844 80.984375 289.097656 106.492188 C 276.339844 119.246094 269.980469 135.941406 269.980469 152.65625 C 269.980469 169.367188 276.359375 186.082031 289.097656 198.835938 L 415.828125 325.554688 L 415.847656 325.554688 L 542.578125 198.835938 C 568.054688 173.328125 568.054688 131.980469 542.542969 106.492188 Z M 462.507812 223.746094 L 433.089844 223.746094 L 433.089844 253.15625 L 398.496094 253.15625 L 398.496094 223.746094 L 369.097656 223.746094 L 369.097656 189.152344 L 398.496094 189.152344 L 398.496094 159.757812 L 433.089844 159.757812 L 433.089844 189.171875 L 462.507812 189.171875 Z M 462.507812 223.746094 " fill-opacity="1" fill-rule="nonzero"/></svg>